<svg width="59" height="22" viewBox="0 0 59 22" fill="none" xmlns="http://www.w3.org/2000/svg">
<path d="M47.1313 0C53.207 0 58.1313 4.92433 58.1313 11C58.1313 17.0757 53.207 22 47.1313 22H11C4.92433 22 0 17.0757 0 11C0 4.92433 4.92433 0 11 0H47.1313Z" fill="#00DE5A"/>
<path d="M11.0023 18.9754C6.59868 18.9754 3.02734 15.4041 3.02734 11.0004C3.02734 6.59672 6.59868 3.02539 11.0023 3.02539C15.406 3.02539 18.9773 6.59672 18.9773 11.0004C18.9773 15.4041 15.406 18.9754 11.0023 18.9754ZM12.5423 7.01106V11.3964L9.45868 7.01106H7.01301V14.9861H9.46234V10.6007L12.546 14.9861H14.9917V7.01106H12.5423Z" fill="black"/>
<path d="M24.9319 17.1861V13.8494V17.1861ZM50.4776 5.93676L48.1162 11.3561L45.5056 5.93676H43.1222L47.0749 13.6258L45.4872 17.1861H47.7386L52.7326 5.93676H50.4812H50.4776ZM39.7929 14.5608H41.9269V5.93676H39.7929V6.64443C39.0596 6.05409 38.2309 5.74609 37.2262 5.74609C34.7989 5.74609 32.8959 7.74076 32.8959 10.2451C32.8959 12.7494 34.7989 14.7441 37.2262 14.7441C38.2309 14.7441 39.0596 14.4361 39.7929 13.8458V14.5534V14.5608ZM37.5342 12.9988C36.1079 12.9988 35.0299 11.8144 35.0299 10.2488C35.0299 8.68309 36.1079 7.49876 37.5342 7.49876C38.9606 7.49876 40.0386 8.68309 40.0386 10.2488C40.0386 11.8144 38.9606 12.9988 37.5342 12.9988ZM24.9612 13.8934C25.6799 14.4581 26.4829 14.7478 27.4546 14.7478C29.8819 14.7478 31.7849 12.7531 31.7849 10.2488C31.7849 7.74076 29.8819 5.74976 27.4546 5.74976C26.4499 5.74976 25.6212 6.05776 24.8879 6.64809V5.94043H22.7539V17.1898H24.9612V13.8934ZM24.6422 10.2488C24.6422 8.67943 25.7202 7.49876 27.1466 7.49876C28.5729 7.49876 29.6509 8.68309 29.6509 10.2488C29.6509 11.8181 28.5729 12.9988 27.1466 12.9988C25.7202 12.9988 24.6422 11.8144 24.6422 10.2488Z" fill="black"/>
</svg>
