<?xml version="1.0" encoding="utf-8"?>
<!-- Generator: Adobe Illustrator 26.3.1, SVG Export Plug-In . SVG Version: 6.00 Build 0)  -->
<svg version="1.1" id="Layer_1" xmlns="http://www.w3.org/2000/svg" xmlns:xlink="http://www.w3.org/1999/xlink" x="0px" y="0px"
	 viewBox="0 0 20 30" style="enable-background:new 0 0 20 30;" xml:space="preserve">
<style type="text/css">
	.st0{fill:#FFFFFF;}
</style>
<path class="st0" d="M16.55,24.67h-14c-0.55,0-1-0.45-1-1v0c0-0.55,0.45-1,1-1h14c0.55,0,1,0.45,1,1v0
	C17.55,24.23,17.1,24.67,16.55,24.67z"/>
<path class="st0" d="M14.5,13.84c-0.39-0.39-1.02-0.39-1.41,0l-2.54,2.54V4.79c0-0.55-0.45-1-1-1s-1,0.45-1,1v11.59l-2.54-2.54
	c-0.39-0.39-1.02-0.39-1.41,0c-0.39,0.39-0.39,1.02,0,1.41l4.24,4.24c0,0,0,0,0.01,0c0.09,0.09,0.2,0.16,0.32,0.21
	c0.24,0.1,0.52,0.1,0.76,0c0.12-0.05,0.23-0.12,0.32-0.21c0,0,0,0,0.01,0l4.24-4.24C14.89,14.87,14.89,14.24,14.5,13.84z"/>
</svg>
