<svg id="ico_kakao" xmlns="http://www.w3.org/2000/svg" xmlns:xlink="http://www.w3.org/1999/xlink" width="60" height="60" viewBox="0 0 60 60">
  <defs>
    <clipPath id="clip-path">
      <path id="패스_3" data-name="패스 3" d="M16.065,24.6h1.9s.012,5.232,0,6.45c0,.89,1.981.9,1.979.013l.008-6.4s.637,0,1.895.006a.933.933,0,0,0,0-1.863c-1.334,0-5.793-.037-5.793-.037a.917.917,0,0,0,0,1.827" transform="translate(-15.226 -22.772)" fill="#f8e049"/>
    </clipPath>
    <clipPath id="clip-path-2">
      <path id="패스_5" data-name="패스 5" d="M25.628,24.94l1.06,3.32H24.478Zm-1.188-1.556c-.468,1.032-2.161,5.906-2.723,7.2-.407.935,1.346,1.7,1.752.763l.381-1.334h3.486s-.12.055.342,1.277c.375.988,2.185.3,1.809-.686-.535-1.414-2.386-6.5-2.724-7.22a1.438,1.438,0,0,0-1.254-.571,1.1,1.1,0,0,0-1.07.571" transform="translate(-21.656 -22.813)" fill="#f8e049"/>
    </clipPath>
    <clipPath id="clip-path-3">
      <path id="패스_7" data-name="패스 7" d="M30.788,23.69c0,1.656.009,7,.009,7s-.153,1.061.758,1.061,2.929-.009,3.824-.009.891-1.9,0-1.9-2.529-.009-2.529-.009.008-4.939.006-6.137a1.045,1.045,0,0,0-2.062,0" transform="translate(-30.788 -22.814)" fill="#f8e049"/>
    </clipPath>
    <clipPath id="clip-path-4">
      <path id="패스_9" data-name="패스 9" d="M36.937,23.427c.02.726-.023,7.295-.022,7.782,0,.769,1.956.767,1.955,0V28.622l.574-.46,2.511,3.426c.508.67,2.1-.54,1.6-1.209l-2.667-3.512S42.7,24.909,43.41,24.2c.417-.413-.872-1.711-1.288-1.3s-3.238,3.238-3.238,3.238.025-1.782,0-2.768c-.01-.374-.469-.555-.939-.555-.5,0-1.016.207-1.006.608" transform="translate(-36.915 -22.819)" fill="#f8e049"/>
    </clipPath>
  </defs>
  <circle id="타원_1" data-name="타원 1" cx="30" cy="30" r="30" fill="#ffe812"/>
  <path id="패스_1" data-name="패스 1" d="M28.62,11.909c-10.22,0-18.5,6.549-18.5,14.629,0,5.259,3.51,9.868,8.779,12.447-.387,1.444-1.4,5.235-1.6,6.044-.252,1.007.367.994.774.724.318-.212,5.07-3.444,7.121-4.839a23.337,23.337,0,0,0,3.435.253c10.22,0,18.5-6.55,18.5-14.629S38.84,11.909,28.62,11.909" transform="translate(2.062 2.091)" fill="#371c1d"/>
  <g id="그룹_13" data-name="그룹 13" transform="translate(16.933 24.109)">
    <g id="그룹_3" data-name="그룹 3">
      <g id="그룹_2" data-name="그룹 2">
        <path id="패스_2" data-name="패스 2" d="M16.065,24.6h1.9s.012,5.232,0,6.45c0,.89,1.981.9,1.979.013l.008-6.4s.637,0,1.895.006a.933.933,0,0,0,0-1.863c-1.334,0-5.793-.037-5.793-.037a.917.917,0,0,0,0,1.827" transform="translate(-15.226 -22.772)" fill="#f8e049"/>
        <g id="그룹_1" data-name="그룹 1" clip-path="url(#clip-path)">
          <rect id="사각형_1" data-name="사각형 1" width="8.094" height="9.179" transform="translate(-0.281 0)" fill="#f8e049"/>
        </g>
      </g>
    </g>
    <g id="그룹_6" data-name="그룹 6" transform="translate(5.983 0.038)">
      <g id="그룹_5" data-name="그룹 5">
        <path id="패스_4" data-name="패스 4" d="M25.628,24.94l1.06,3.32H24.478Zm-1.188-1.556c-.468,1.032-2.161,5.906-2.723,7.2-.407.935,1.346,1.7,1.752.763l.381-1.334h3.486s-.12.055.342,1.277c.375.988,2.185.3,1.809-.686-.535-1.414-2.386-6.5-2.724-7.22a1.438,1.438,0,0,0-1.254-.571,1.1,1.1,0,0,0-1.07.571" transform="translate(-21.656 -22.813)" fill="#f8e049"/>
        <g id="그룹_4" data-name="그룹 4" clip-path="url(#clip-path-2)">
          <rect id="사각형_2" data-name="사각형 2" width="8.553" height="9.468" transform="translate(-0.346 0)" fill="#f8e049"/>
        </g>
      </g>
    </g>
    <g id="그룹_9" data-name="그룹 9" transform="translate(14.481 0.039)">
      <g id="그룹_8" data-name="그룹 8">
        <path id="패스_6" data-name="패스 6" d="M30.788,23.69c0,1.656.009,7,.009,7s-.153,1.061.758,1.061,2.929-.009,3.824-.009.891-1.9,0-1.9-2.529-.009-2.529-.009.008-4.939.006-6.137a1.045,1.045,0,0,0-2.062,0" transform="translate(-30.788 -22.814)" fill="#f8e049"/>
        <g id="그룹_7" data-name="그룹 7" clip-path="url(#clip-path-3)">
          <rect id="사각형_3" data-name="사각형 3" width="5.629" height="8.932" transform="translate(-0.143 0)" fill="#f8e049"/>
        </g>
      </g>
    </g>
    <g id="그룹_12" data-name="그룹 12" transform="translate(20.183 0.044)">
      <g id="그룹_11" data-name="그룹 11">
        <path id="패스_8" data-name="패스 8" d="M36.937,23.427c.02.726-.023,7.295-.022,7.782,0,.769,1.956.767,1.955,0V28.622l.574-.46,2.511,3.426c.508.67,2.1-.54,1.6-1.209l-2.667-3.512S42.7,24.909,43.41,24.2c.417-.413-.872-1.711-1.288-1.3s-3.238,3.238-3.238,3.238.025-1.782,0-2.768c-.01-.374-.469-.555-.939-.555-.5,0-1.016.207-1.006.608" transform="translate(-36.915 -22.819)" fill="#f8e049"/>
        <g id="그룹_10" data-name="그룹 10" clip-path="url(#clip-path-4)">
          <rect id="사각형_4" data-name="사각형 4" width="7.146" height="9.77" transform="translate(-0.001 -0.331)" fill="#f8e049"/>
        </g>
      </g>
    </g>
  </g>
</svg>
