<svg id="그룹_4" data-name="그룹 4" xmlns="http://www.w3.org/2000/svg" width="60" height="60" viewBox="0 0 60 60">
  <defs>
    <style>
      .cls-1 {
        fill: #00c63b;
      }

      .cls-2 {
        fill: #fff;
        fill-rule: evenodd;
      }
    </style>
  </defs>
  <circle class="cls-1" cx="30" cy="30" r="30"/>
  <path class="cls-2" d="M1280.88,606.021c-3.06-.023-6.12.006-9.18-0.012-0.02,3.966.02,7.934-.03,11.9-2.84-3.921-5.53-7.958-8.44-11.83-3.07-.135-6.16-0.04-9.23-0.045,0.02,7.954.01,15.911,0.01,23.865,3.07,0.018,6.15.013,9.22,0,0.05-3.944-.05-7.892.06-11.836,1.01,1.365,1.93,2.791,2.96,4.143,1.72,2.59,3.66,5.037,5.32,7.668,3.1,0.079,6.19,0,9.29.045" transform="translate(-1237 -588)"/>
</svg>
