<svg id="그룹_2" data-name="그룹 2" xmlns="http://www.w3.org/2000/svg" width="60" height="60" viewBox="0 0 60 60">
  <defs>
    <style>
      .cls-1 {
        fill: #1da1f2;
      }

      .cls-2 {
        fill: #fff;
        fill-rule: evenodd;
      }
    </style>
  </defs>
  <circle id="Ellipse_8_copy_2" data-name="Ellipse 8 copy 2" class="cls-1" cx="30" cy="30" r="30"/>
  <path class="cls-2" d="M1442.97,608.54a15.231,15.231,0,0,1-4.36,1.2,7.638,7.638,0,0,0,3.34-4.192,15.365,15.365,0,0,1-4.82,1.837,7.587,7.587,0,0,0-12.93,6.911,21.576,21.576,0,0,1-15.64-7.915,7.565,7.565,0,0,0,2.35,10.113,7.611,7.611,0,0,1-3.44-.95v0.1a7.591,7.591,0,0,0,6.09,7.429,7.868,7.868,0,0,1-2,.263,7.461,7.461,0,0,1-1.43-.135,7.6,7.6,0,0,0,7.09,5.261,15.246,15.246,0,0,1-9.43,3.241,16.149,16.149,0,0,1-1.81-.1,21.526,21.526,0,0,0,11.64,3.4c13.95,0,21.58-11.544,21.58-21.555,0-.325,0-0.656-0.02-0.979a15.567,15.567,0,0,0,3.79-3.923" transform="translate(-1393 -588)"/>
</svg>
