<svg id="ico_kastory" xmlns="http://www.w3.org/2000/svg" width="60" height="60" viewBox="0 0 60 60">
  <circle id="타원_2" data-name="타원 2" cx="30" cy="30" r="30" fill="#ffe900"/>
  <path id="패스_10" data-name="패스 10" d="M68.309,92.428H51.236a.2.2,0,0,0-.2.2v17.081a.2.2,0,0,0,.2.2l7.663,0a15.01,15.01,0,0,1-5.9,9.238.2.2,0,0,0-.082.143.2.2,0,0,0,.058.159l4.963,4.925a.2.2,0,0,0,.14.058.193.193,0,0,0,.109-.034,23.229,23.229,0,0,0,10.323-19.31V92.625A.2.2,0,0,0,68.309,92.428Z" transform="translate(-29.772 -76.428)" fill="#fff"/>
</svg>
