<svg id="그룹_6" data-name="그룹 6" xmlns="http://www.w3.org/2000/svg" width="60" height="60" viewBox="0 0 60 60">
  <defs>
    <style>
      .cls-1 {
        fill: #0cb604;
      }

      .cls-2 {
        fill: #fff;
        fill-rule: evenodd;
      }
    </style>
  </defs>
  <circle id="Ellipse_8_copy_2" data-name="Ellipse 8 copy 2" class="cls-1" cx="30" cy="30" r="30"/>
  <path class="cls-2" d="M1443.58,509.923c0-9.144-9.2-16.583-20.5-16.583s-20.51,7.439-20.51,16.583c0,8.2,7.29,15.061,17.15,16.359a2.545,2.545,0,0,1,1.81,1.008,4.27,4.27,0,0,1,.06,1.848s-0.24,1.442-.29,1.749c-0.09.517-.41,2.021,1.78,1.1s11.81-6.93,16.11-11.864h0C1442.16,516.877,1443.58,513.582,1443.58,509.923Zm-27.74,4.881a0.4,0.4,0,0,1-.4.4h-5.75a0.4,0.4,0,0,1-.27-0.111s0,0-.01,0V515.08a0.389,0.389,0,0,1-.11-0.275h0v-8.9a0.4,0.4,0,0,1,.4-0.4h1.43a0.4,0.4,0,0,1,.4.4v7.071h3.91a0.4,0.4,0,0,1,.4.4V514.8Zm3.47,0a0.4,0.4,0,0,1-.4.4h-1.44a0.4,0.4,0,0,1-.4-0.4v-8.9a0.4,0.4,0,0,1,.4-0.4h1.44a0.4,0.4,0,0,1,.4.4v8.9Zm9.9,0a0.4,0.4,0,0,1-.4.4h-1.44a0.345,0.345,0,0,1-.1-0.014h-0.01a0.038,0.038,0,0,0-.02-0.008l-0.02,0a0.07,0.07,0,0,0-.01-0.008,0.036,0.036,0,0,1-.02-0.009c-0.01,0-.01,0-0.02-0.007a0.034,0.034,0,0,0-.02-0.014v0a0.426,0.426,0,0,1-.11-0.1l-4.09-5.517V514.8a0.4,0.4,0,0,1-.4.4h-1.44a0.4,0.4,0,0,1-.4-0.4v-8.9a0.4,0.4,0,0,1,.4-0.4h1.45l0.02,0a0.069,0.069,0,0,1,.02,0l0.02,0a0.146,0.146,0,0,1,.02,0c0.01,0,.01,0,0.01,0l0.03,0.008s0.01,0,.01,0a0.035,0.035,0,0,1,.02.01,0.152,0.152,0,0,0,.02.006,0.039,0.039,0,0,0,.02.013,0.061,0.061,0,0,1,.01.007,0.243,0.243,0,0,1,.02.014,0.07,0.07,0,0,1,.01.008,0.032,0.032,0,0,1,.02.017c0.01,0,.01,0,0.01.007a0.041,0.041,0,0,1,.02.025l0.01,0c0.01,0.012.02,0.026,0.03,0.04l4.09,5.51V505.9a0.4,0.4,0,0,1,.4-0.4h1.44a0.4,0.4,0,0,1,.4.4v8.9Zm7.94-7.469a0.4,0.4,0,0,1-.4.4h-3.9v1.5h3.9a0.4,0.4,0,0,1,.4.4v1.433a0.4,0.4,0,0,1-.4.4h-3.9v1.5h3.9a0.4,0.4,0,0,1,.4.4V514.8a0.4,0.4,0,0,1-.4.4h-5.74a0.4,0.4,0,0,1-.28-0.111v0c-0.01,0-.01,0-0.01-0.006a0.389,0.389,0,0,1-.11-0.275h0v-8.9h0a0.389,0.389,0,0,1,.11-0.275s0,0,.01-0.007v0a0.394,0.394,0,0,1,.28-0.112h5.74a0.4,0.4,0,0,1,.4.4v1.434Z" transform="translate(-1393 -481)"/>
</svg>
