<svg id="그룹_1" data-name="그룹 1" xmlns="http://www.w3.org/2000/svg" width="60" height="60" viewBox="0 0 60 60">
  <defs>
    <style>
      .cls-1 {
        fill: #98adc4;
      }

      .cls-2 {
        fill: #fff;
        fill-rule: evenodd;
      }
    </style>
  </defs>
  <circle id="Ellipse_8_copy_3" data-name="Ellipse 8 copy 3" class="cls-1" cx="30" cy="30" r="30"/>
  <path class="cls-2" d="M1512.95,617.366l-7.27,7.272a0.238,0.238,0,0,0-.05.051,7.015,7.015,0,0,1-6.64,1.78,6.9,6.9,0,0,1-1.2-.423,6.981,6.981,0,0,1-2.02-1.408,7.068,7.068,0,0,1-1.41-2.019l2.8-2.8a3.568,3.568,0,0,0,6.02,2.45l0.03-.028c0.01-.011.03-0.024,0.04-0.036l7.27-7.272a3.57,3.57,0,0,0-5.05-5.047l-2.19,2.194a8.2,8.2,0,0,0-4.67-.194l4.43-4.43A7.006,7.006,0,0,1,1512.95,617.366Zm-11.01,3.624c0.04-.044.08-0.089,0.12-0.136l0.01,0.01-0.11.108C1501.95,620.978,1501.95,620.985,1501.94,620.99Zm0.79,6.592-4.43,4.431a7,7,0,1,1-9.9-9.908l7.27-7.272c0.02-.017.03-0.034,0.05-0.05a7.006,7.006,0,0,1,6.64-1.78,6.822,6.822,0,0,1,1.2.423,7.118,7.118,0,0,1,2.02,1.408,6.849,6.849,0,0,1,1.4,2.018,0.013,0.013,0,0,1,.01.014l-2.8,2.8v-0.02a3.575,3.575,0,0,0-6.03-2.45l-0.02.028a0.13,0.13,0,0,0-.04.036l-7.27,7.272a3.566,3.566,0,1,0,5.04,5.047l2.2-2.193A8.16,8.16,0,0,0,1502.73,627.582Z" transform="translate(-1471 -588)"/>
</svg>
