<svg id="그룹_5" data-name="그룹 5" xmlns="http://www.w3.org/2000/svg" width="60" height="60" viewBox="0 0 60 60">
  <defs>
    <style>
      .cls-1 {
        fill: #00c73c;
      }

      .cls-2 {
        fill: #fff;
        fill-rule: evenodd;
      }
    </style>
  </defs>
  <circle id="Ellipse_8_copy_3" data-name="Ellipse 8 copy 3" class="cls-1" cx="30" cy="30" r="30"/>
  <path class="cls-2" d="M1501.83,499.638a15.848,15.848,0,0,0-3.94.5v-3.067a1.478,1.478,0,0,0-.02-0.209,6.017,6.017,0,0,0-12.03,0c-0.01.07-.02,11.516-0.02,11.516v7.445c0,0.053.01,0.105,0.01,0.156A16.012,16.012,0,1,0,1501.83,499.638Zm0,29.877a13.626,13.626,0,0,1-13.55-13.7V497.186a3.576,3.576,0,1,1,7.15,0l-0.01,18.47a6.591,6.591,0,0,0,6.41,6.649,6.486,6.486,0,0,0,0-12.971,6.356,6.356,0,0,0-3.94,1.371v-2.776a8.677,8.677,0,0,1,3.94-.949,8.841,8.841,0,1,1-8.74,8.839V497.067a1.231,1.231,0,0,0-2.46,0v18.752c0,0.285.01,0.566,0.03,0.845a11.211,11.211,0,1,0,11.17-12.17,11.086,11.086,0,0,0-3.94.723v-2.5a13.414,13.414,0,0,1,3.94-.59A13.7,13.7,0,0,1,1501.83,529.515Zm-3.94-13.7a3.945,3.945,0,1,1,3.94,3.986A3.966,3.966,0,0,1,1497.89,515.819Z" transform="translate(-1471 -481)"/>
</svg>
