<svg xmlns="http://www.w3.org/2000/svg" width="24" height="22" viewBox="0 0 24 22">
  <defs>
    <style>
      .cls-1 {
        fill: #020202;
        fill-rule: evenodd;
      }
    </style>
  </defs>
  <path id="cart" class="cls-1" d="M18.464,15.957a2.808,2.808,0,1,0,2.81,2.808A2.812,2.812,0,0,0,18.464,15.957Zm0,3.931a1.123,1.123,0,1,1,1.124-1.123A1.125,1.125,0,0,1,18.464,19.888ZM22.979,5.106a0.842,0.842,0,0,0-.664-0.323H5.822L5.063,1.611A0.843,0.843,0,0,0,4.244.964H1.461a0.842,0.842,0,1,0,0,1.685H3.578L6.318,14.1a0.843,0.843,0,0,0,.82.647H20.263a0.843,0.843,0,0,0,.818-0.64l2.052-8.283A0.842,0.842,0,0,0,22.979,5.106ZM19.6,13.065H7.8l-1.578-6.6H21.238ZM8.262,15.957a2.808,2.808,0,1,0,2.81,2.808A2.812,2.812,0,0,0,8.262,15.957Zm0,3.931a1.123,1.123,0,1,1,1.124-1.123A1.125,1.125,0,0,1,8.262,19.888Z"/>
</svg>
