<svg xmlns="http://www.w3.org/2000/svg" width="20" height="20" viewBox="0 0 20 20">
  <defs>
    <style>
      .cls-1 {
        fill-rule: evenodd;
        mix-blend-mode: luminosity;
      }
    </style>
  </defs>
  <path id="profile_round" class="cls-1" d="M19.967,17.625a9.518,9.518,0,0,0-6.125-6.959,5.928,5.928,0,0,0,2.219-5.6,6.143,6.143,0,0,0-12.19.93,5.935,5.935,0,0,0,2.291,4.671,9.518,9.518,0,0,0-6.125,6.96,2,2,0,0,0,2.012,2.363H17.955A2,2,0,0,0,19.967,17.625ZM5.914,5.994a4.088,4.088,0,0,1,8.174,0A4.088,4.088,0,0,1,5.914,5.994ZM16.57,17.989H3.432a1,1,0,0,1-.962-1.337A7.842,7.842,0,0,1,10,11.991a7.842,7.842,0,0,1,7.531,4.66A1,1,0,0,1,16.57,17.989Z"/>
</svg>
