<svg xmlns="http://www.w3.org/2000/svg" width="20" height="20" viewBox="0 0 20 20">
  <defs>
    <style>
      .cls-1 {
        fill-rule: evenodd;
      }
    </style>
  </defs>
  <path id="shopping_bag" class="cls-1" d="M17.988,6.044H16.864C16.253,3.052,13.355,0,9.99,0A7.465,7.465,0,0,0,3.068,6.044H1.991a2.052,2.052,0,0,0-2,2.058V18.07a1.943,1.943,0,0,0,2,1.93h16a1.943,1.943,0,0,0,2-1.93V8.1A2.052,2.052,0,0,0,17.988,6.044Zm-8-4.061c2.259,0,4.22,2.067,4.812,4.061H5.087A5.38,5.38,0,0,1,9.99,1.982Zm8,15.027a1,1,0,0,1-1,1h-14a1,1,0,0,1-1-1V9.034a1,1,0,0,1,1-1h14a1,1,0,0,1,1,1V17.01Z"/>
</svg>
